<svg aria-hidden="true" style="position: absolute; width: 0; height: 0; overflow: hidden;" version="1.1" xmlns="http://www.w3.org/2000/svg" xmlns:xlink="http://www.w3.org/1999/xlink">
<defs>
<symbol id="icon-magicWand" viewBox="0 0 32 32">
<path d="M31 19c0 0.265-0.105 0.52-0.293 0.707s-0.442 0.293-0.707 0.293h-2v2c0 0.265-0.105 0.52-0.293 0.707s-0.442 0.293-0.707 0.293-0.52-0.105-0.707-0.293c-0.188-0.188-0.293-0.442-0.293-0.707v-2h-2c-0.265 0-0.52-0.105-0.707-0.293s-0.293-0.442-0.293-0.707 0.105-0.52 0.293-0.707c0.188-0.188 0.442-0.293 0.707-0.293h2v-2c0-0.265 0.105-0.52 0.293-0.707s0.442-0.293 0.707-0.293 0.52 0.105 0.707 0.293c0.188 0.188 0.293 0.442 0.293 0.707v2h2c0.265 0 0.52 0.105 0.707 0.293s0.293 0.442 0.293 0.707zM7 9h2v2c0 0.265 0.105 0.52 0.293 0.707s0.442 0.293 0.707 0.293c0.265 0 0.52-0.105 0.707-0.293s0.293-0.442 0.293-0.707v-2h2c0.265 0 0.52-0.105 0.707-0.293s0.293-0.442 0.293-0.707-0.105-0.52-0.293-0.707c-0.188-0.188-0.442-0.293-0.707-0.293h-2v-2c0-0.265-0.105-0.52-0.293-0.707s-0.442-0.293-0.707-0.293-0.52 0.105-0.707 0.293c-0.188 0.188-0.293 0.442-0.293 0.707v2h-2c-0.265 0-0.52 0.105-0.707 0.293s-0.293 0.442-0.293 0.707c0 0.265 0.105 0.52 0.293 0.707s0.442 0.293 0.707 0.293zM23 24h-1v-1c0-0.265-0.105-0.52-0.293-0.707s-0.442-0.293-0.707-0.293-0.52 0.105-0.707 0.293c-0.188 0.188-0.293 0.442-0.293 0.707v1h-1c-0.265 0-0.52 0.105-0.707 0.293s-0.293 0.442-0.293 0.707 0.105 0.52 0.293 0.707c0.188 0.188 0.442 0.293 0.707 0.293h1v1c0 0.265 0.105 0.52 0.293 0.707s0.442 0.293 0.707 0.293 0.52-0.105 0.707-0.293c0.188-0.188 0.293-0.442 0.293-0.707v-1h1c0.265 0 0.52-0.105 0.707-0.293s0.293-0.442 0.293-0.707-0.105-0.52-0.293-0.707c-0.188-0.188-0.442-0.293-0.707-0.293zM27.414 10l-17.414 17.414c-0.375 0.375-0.884 0.585-1.414 0.585s-1.039-0.211-1.414-0.585l-2.588-2.585c-0.186-0.186-0.333-0.406-0.434-0.649s-0.152-0.503-0.152-0.765 0.052-0.523 0.152-0.765c0.101-0.243 0.248-0.463 0.434-0.649l17.415-17.414c0.186-0.186 0.406-0.333 0.649-0.434s0.503-0.152 0.765-0.152c0.263 0 0.523 0.052 0.765 0.152s0.463 0.248 0.649 0.434l2.585 2.585c0.186 0.186 0.333 0.406 0.434 0.649s0.152 0.503 0.152 0.765-0.052 0.523-0.152 0.765c-0.101 0.243-0.248 0.463-0.434 0.649zM26 8.586l-2.586-2.586-4 4 2.586 2.586 4-4z"></path>
</symbol>
<symbol id="icon-funnel" viewBox="0 0 32 32">
<path d="M28.4762 8.345L28.4662 8.35625L20 17.3962V24.3325C20.0005 24.6624 19.9193 24.9873 19.7638 25.2782C19.6083 25.5692 19.3833 25.8171 19.1087 26L15.1087 28.6675C14.8073 28.8683 14.457 28.9834 14.0952 29.0007C13.7334 29.0179 13.3738 28.9366 13.0546 28.7654C12.7354 28.5942 12.4687 28.3396 12.283 28.0286C12.0973 27.7177 11.9994 27.3622 12 27V17.3962L3.53372 8.35625L3.52372 8.345C3.2634 8.05852 3.09181 7.70265 3.02977 7.32057C2.96772 6.93849 3.01789 6.54661 3.17418 6.19248C3.33047 5.83835 3.58616 5.53718 3.91025 5.32551C4.23433 5.11384 4.61288 5.00076 4.99997 5H27C27.3874 5.00004 27.7664 5.11259 28.0911 5.32398C28.4157 5.53536 28.672 5.83649 28.8287 6.19077C28.9855 6.54504 29.036 6.93722 28.9741 7.31965C28.9121 7.70207 28.7405 8.05828 28.48 8.345H28.4762Z"></path>
</symbol>
<symbol id="icon-funnelX" viewBox="0 0 32 32">
<path d="M28.4662 8.35625L20 17.3962V24.3325C20.0005 24.6624 19.9193 24.9873 19.7638 25.2782C19.6083 25.5692 19.3833 25.8171 19.1087 26L15.1087 28.6675C14.8073 28.8683 14.457 28.9834 14.0952 29.0007C13.7334 29.0179 13.3738 28.9366 13.0546 28.7654C12.7354 28.5942 12.4687 28.3396 12.283 28.0286C12.0973 27.7177 11.9994 27.3622 12 27V17.3962L3.53372 8.35625L3.52372 8.345C3.2634 8.05852 3.09181 7.70265 3.02977 7.32057C2.96772 6.93849 3.01789 6.54661 3.17418 6.19248C3.33047 5.83835 3.58616 5.53718 3.91025 5.32551C4.23433 5.11384 4.61288 5.00076 4.99997 5H27C27.3874 5.00004 27.7664 5.11259 28.0911 5.32398C28.4157 5.53536 28.672 5.83649 28.8287 6.19077C28.9855 6.54504 29.036 6.93722 28.9741 7.31965C28.9121 7.70207 28.7405 8.05828 28.48 8.345L28.4662 8.35625ZM28.4137 24L30.7075 21.7075C30.8951 21.5199 31.0005 21.2654 31.0005 21C31.0005 20.7346 30.8951 20.4801 30.7075 20.2925C30.5198 20.1049 30.2653 19.9994 30 19.9994C29.7346 19.9994 29.4801 20.1049 29.2925 20.2925L27 22.5863L24.7075 20.2925C24.5198 20.1049 24.2653 19.9994 24 19.9994C23.7346 19.9994 23.4801 20.1049 23.2925 20.2925C23.1048 20.4801 22.9994 20.7346 22.9994 21C22.9994 21.2654 23.1048 21.5199 23.2925 21.7075L25.5862 24L23.2925 26.2925C23.1048 26.4801 22.9994 26.7346 22.9994 27C22.9994 27.2654 23.1048 27.5199 23.2925 27.7075C23.4801 27.8951 23.7346 28.0006 24 28.0006C24.2653 28.0006 24.5198 27.8951 24.7075 27.7075L27 25.4137L29.2925 27.7075C29.4801 27.8951 29.7346 28.0006 30 28.0006C30.2653 28.0006 30.5198 27.8951 30.7075 27.7075C30.8951 27.5199 31.0005 27.2654 31.0005 27C31.0005 26.7346 30.8951 26.4801 30.7075 26.2925L28.4137 24Z"></path>
</symbol>
<symbol id="icon-folder-open" viewBox="0 0 32 32">
<path d="M30.625 13.83C30.4394 13.5727 30.1952 13.3632 29.9127 13.2189C29.6301 13.0746 29.3173 12.9995 29 13H27V11C27 10.4696 26.7893 9.96086 26.4142 9.58579C26.0391 9.21071 25.5304 9 25 9H16.3337L12.8675 6.4C12.5207 6.14148 12.1 6.00125 11.6675 6H5C4.46957 6 3.96086 6.21071 3.58579 6.58579C3.21071 6.96086 3 7.46957 3 8V26C3 26.2652 3.10536 26.5196 3.29289 26.7071C3.48043 26.8946 3.73478 27 4 27H26.3875C26.5974 27 26.802 26.934 26.9722 26.8113C27.1425 26.6886 27.2699 26.5154 27.3363 26.3162L30.8975 15.6325C30.9976 15.3319 31.0252 15.0118 30.9778 14.6985C30.9304 14.3852 30.8095 14.0876 30.625 13.83ZM11.6675 8L15.4 10.8C15.5731 10.9298 15.7836 11 16 11H25V13H8.72125C8.30147 13 7.89232 13.132 7.55176 13.3775C7.2112 13.6229 6.95651 13.9693 6.82375 14.3675L5 19.8375V8H11.6675Z"></path>
</symbol>
<symbol id="icon-smile" viewBox="0 0 24 24">
<path d="M23 12c0-3.037-1.232-5.789-3.222-7.778s-4.741-3.222-7.778-3.222-5.789 1.232-7.778 3.222-3.222 4.741-3.222 7.778 1.232 5.789 3.222 7.778 4.741 3.222 7.778 3.222 5.789-1.232 7.778-3.222 3.222-4.741 3.222-7.778zM21 12c0 2.486-1.006 4.734-2.636 6.364s-3.878 2.636-6.364 2.636-4.734-1.006-6.364-2.636-2.636-3.878-2.636-6.364 1.006-4.734 2.636-6.364 3.878-2.636 6.364-2.636 4.734 1.006 6.364 2.636 2.636 3.878 2.636 6.364zM7.2 14.6c0 0 0.131 0.173 0.331 0.383 0.145 0.153 0.338 0.341 0.577 0.54 0.337 0.281 0.772 0.59 1.297 0.853 0.705 0.352 1.579 0.624 2.595 0.624s1.89-0.272 2.595-0.624c0.525-0.263 0.96-0.572 1.297-0.853 0.239-0.199 0.432-0.387 0.577-0.54 0.2-0.21 0.331-0.383 0.331-0.383 0.331-0.442 0.242-1.069-0.2-1.4s-1.069-0.242-1.4 0.2c-0.041 0.050-0.181 0.206-0.181 0.206-0.1 0.105-0.237 0.239-0.408 0.382-0.243 0.203-0.549 0.419-0.91 0.6-0.48 0.239-1.050 0.412-1.701 0.412s-1.221-0.173-1.701-0.413c-0.36-0.18-0.667-0.397-0.91-0.6-0.171-0.143-0.308-0.277-0.408-0.382-0.14-0.155-0.181-0.205-0.181-0.205-0.331-0.442-0.958-0.531-1.4-0.2s-0.531 0.958-0.2 1.4zM9 10c0.552 0 1-0.448 1-1s-0.448-1-1-1-1 0.448-1 1 0.448 1 1 1zM15 10c0.552 0 1-0.448 1-1s-0.448-1-1-1-1 0.448-1 1 0.448 1 1 1z"></path>
</symbol>
<symbol id="icon-alert-triangle" viewBox="0 0 24 24">
<path d="M11.148 4.374c0.073-0.123 0.185-0.242 0.334-0.332 0.236-0.143 0.506-0.178 0.756-0.116s0.474 0.216 0.614 0.448l8.466 14.133c0.070 0.12 0.119 0.268 0.128 0.434-0.015 0.368-0.119 0.591-0.283 0.759-0.18 0.184-0.427 0.298-0.693 0.301l-16.937-0.001c-0.152-0.001-0.321-0.041-0.481-0.134-0.239-0.138-0.399-0.359-0.466-0.607s-0.038-0.519 0.092-0.745zM9.432 3.346l-8.47 14.14c-0.422 0.731-0.506 1.55-0.308 2.29s0.68 1.408 1.398 1.822c0.464 0.268 0.976 0.4 1.475 0.402h16.943c0.839-0.009 1.587-0.354 2.123-0.902s0.864-1.303 0.855-2.131c-0.006-0.536-0.153-1.044-0.406-1.474l-8.474-14.147c-0.432-0.713-1.11-1.181-1.854-1.363s-1.561-0.081-2.269 0.349c-0.429 0.26-0.775 0.615-1.012 1.014zM11 9v4c0 0.552 0.448 1 1 1s1-0.448 1-1v-4c0-0.552-0.448-1-1-1s-1 0.448-1 1zM12 18c0.552 0 1-0.448 1-1s-0.448-1-1-1-1 0.448-1 1 0.448 1 1 1z"></path>
</symbol>
<symbol id="icon-star" viewBox="0 0 32 32">
<path d="M30.375 12.0001C30.22 11.5217 29.9265 11.1001 29.5318 10.7886C29.1371 10.477 28.6588 10.2896 28.1575 10.2501L21.0837 9.67881L18.3537 3.07756C18.1619 2.61101 17.8357 2.212 17.4166 1.9312C16.9975 1.65041 16.5044 1.50049 16 1.50049C15.4955 1.50049 15.0024 1.65041 14.5834 1.9312C14.1643 2.212 13.8381 2.61101 13.6462 3.07756L10.9187 9.68006L3.84499 10.2501C3.34277 10.2915 2.86399 10.4804 2.46882 10.7931C2.07366 11.1058 1.77973 11.5284 1.62399 12.0076C1.46824 12.4869 1.45763 13.0015 1.59347 13.4867C1.72931 13.972 2.00556 14.4063 2.38749 14.7351L7.78499 19.3901L6.13499 26.3526C6.01464 26.8434 6.04311 27.359 6.21677 27.8337C6.39043 28.3083 6.70141 28.7206 7.11013 29.0179C7.51885 29.3152 8.00681 29.4842 8.51187 29.5033C9.01693 29.5224 9.51625 29.3907 9.94624 29.1251L16 25.3988L22.0537 29.1251C22.4836 29.3889 22.9821 29.5193 23.4861 29.4997C23.9901 29.4801 24.477 29.3114 24.885 29.0149C25.2931 28.7185 25.6041 28.3076 25.7785 27.8343C25.9529 27.3611 25.983 26.8467 25.865 26.3563L24.215 19.3938L29.6125 14.7388C29.9967 14.4093 30.2743 13.973 30.4101 13.4853C30.5458 12.9977 30.5336 12.4807 30.375 12.0001ZM21.5662 17.7126C21.3581 17.892 21.2033 18.1252 21.1186 18.3866C21.034 18.648 21.0228 18.9277 21.0862 19.1951L22.6975 26.0001L16.7862 22.3651C16.5498 22.2195 16.2776 22.1425 16 22.1425C15.7224 22.1425 15.4502 22.2195 15.2137 22.3651L9.30249 26.0001L10.9137 19.2001C10.9772 18.9327 10.966 18.653 10.8814 18.3916C10.7967 18.1302 10.6419 17.897 10.4337 17.7176L5.14999 13.1551L12.075 12.5963C12.3506 12.5742 12.6147 12.4763 12.8381 12.3135C13.0616 12.1507 13.2357 11.9293 13.3412 11.6738L16 5.23631L18.6587 11.6738C18.7643 11.9293 18.9384 12.1507 19.1619 12.3135C19.3853 12.4763 19.6494 12.5742 19.925 12.5963L26.85 13.1551L21.5662 17.7126Z"></path>
</symbol>
<symbol id="icon-star-fill" viewBox="0 0 32 32">
<path d="M29.2862 14.3563L23.6612 19.21L25.375 26.4688C25.4695 26.8628 25.4452 27.2761 25.305 27.6563C25.1648 28.0365 24.9151 28.3666 24.5874 28.605C24.2597 28.8433 23.8687 28.9792 23.4638 28.9955C23.0589 29.0117 22.6582 28.9076 22.3125 28.6963L16 24.8113L9.68373 28.6963C9.33802 28.9064 8.93786 29.0095 8.53366 28.9927C8.12945 28.9758 7.73927 28.8398 7.41224 28.6016C7.08521 28.3634 6.83595 28.0339 6.69586 27.6543C6.55577 27.2748 6.53111 26.8623 6.62498 26.4688L8.34498 19.21L2.71998 14.3563C2.41411 14.0919 2.19289 13.7433 2.08396 13.354C1.97503 12.9646 1.98322 12.5518 2.1075 12.1671C2.23178 11.7824 2.46665 11.4428 2.78277 11.1908C3.09889 10.9388 3.48225 10.7855 3.88498 10.75L11.26 10.155L14.105 3.27004C14.259 2.89481 14.5211 2.57385 14.8579 2.34796C15.1948 2.12208 15.5913 2.00146 15.9969 2.00146C16.4025 2.00146 16.7989 2.12208 17.1358 2.34796C17.4726 2.57385 17.7347 2.89481 17.8887 3.27004L20.7325 10.155L28.1075 10.75C28.511 10.7842 28.8955 10.9366 29.2128 11.1883C29.53 11.44 29.766 11.7797 29.891 12.1649C30.0161 12.55 30.0247 12.9636 29.9158 13.3536C29.8069 13.7436 29.5853 14.0929 29.2787 14.3575L29.2862 14.3563Z"></path>
</symbol>
<symbol id="icon-loader" viewBox="0 0 24 24">
<path d="M11 2v4c0 0.552 0.448 1 1 1s1-0.448 1-1v-4c0-0.552-0.448-1-1-1s-1 0.448-1 1zM11 18v4c0 0.552 0.448 1 1 1s1-0.448 1-1v-4c0-0.552-0.448-1-1-1s-1 0.448-1 1zM4.223 5.637l2.83 2.83c0.391 0.391 1.024 0.391 1.414 0s0.391-1.024 0-1.414l-2.83-2.83c-0.391-0.391-1.024-0.391-1.414 0s-0.391 1.024 0 1.414zM15.533 16.947l2.83 2.83c0.391 0.391 1.024 0.391 1.414 0s0.391-1.024 0-1.414l-2.83-2.83c-0.391-0.391-1.024-0.391-1.414 0s-0.391 1.024 0 1.414zM2 13h4c0.552 0 1-0.448 1-1s-0.448-1-1-1h-4c-0.552 0-1 0.448-1 1s0.448 1 1 1zM18 13h4c0.552 0 1-0.448 1-1s-0.448-1-1-1h-4c-0.552 0-1 0.448-1 1s0.448 1 1 1zM5.637 19.777l2.83-2.83c0.391-0.391 0.391-1.024 0-1.414s-1.024-0.391-1.414 0l-2.83 2.83c-0.391 0.391-0.391 1.024 0 1.414s1.024 0.391 1.414 0zM16.947 8.467l2.83-2.83c0.391-0.391 0.391-1.024 0-1.414s-1.024-0.391-1.414 0l-2.83 2.83c-0.391 0.391-0.391 1.024 0 1.414s1.024 0.391 1.414 0z"></path>
</symbol>

<!-- no -->
</defs>
</svg>
